<?xml version="1.0" standalone="no"?>
<!DOCTYPE svg PUBLIC "-//W3C//DTD SVG 20010904//EN"
 "http://www.w3.org/TR/2001/REC-SVG-20010904/DTD/svg10.dtd">
<svg version="1.0" xmlns="http://www.w3.org/2000/svg"
 width="382.000000pt" height="382.000000pt" viewBox="0 0 382.000000 382.000000"
 preserveAspectRatio="xMidYMid meet">
<metadata>
Created by potrace 1.11, written by Peter Selinger 2001-2013
</metadata>
<g transform="translate(0.000000,382.000000) scale(0.100000,-0.100000)"
fill="#000000" stroke="none">
<path d="M1192 3800 c-24 -11 -67 -44 -95 -73 -129 -134 -194 -321 -204 -592
-6 -152 5 -267 39 -408 l21 -87 -104 -108 c-210 -215 -358 -432 -421 -614 -31
-89 -32 -100 -32 -238 1 -114 6 -161 22 -222 41 -152 136 -305 262 -420 83
-77 156 -122 263 -162 77 -28 90 -30 223 -30 l142 1 37 -136 c61 -221 59 -361
-6 -450 -40 -54 -140 -103 -221 -109 l-61 -5 51 49 c56 55 72 96 72 186 0 112
-58 214 -144 254 -59 28 -85 29 -150 10 -66 -20 -127 -74 -166 -148 -29 -53
-35 -76 -38 -144 -4 -72 -1 -89 21 -137 34 -75 88 -131 161 -167 246 -120 571
-5 668 237 19 50 22 75 22 183 -1 109 -6 144 -38 270 -20 80 -39 152 -42 161
-3 12 15 30 65 64 125 82 211 200 246 335 13 50 16 89 12 165 -10 164 -68 306
-167 406 -92 93 -186 134 -351 154 l-45 6 -27 122 c-15 67 -27 131 -27 140 0
10 30 53 67 95 136 156 203 288 244 483 32 148 32 421 1 558 -39 169 -123 331
-193 370 -45 26 -53 26 -107 1z m115 -398 c18 -12 43 -77 43 -114 0 -86 -86
-298 -176 -433 -39 -59 -81 -101 -91 -91 -4 3 -9 60 -11 125 -8 232 61 434
172 502 34 21 45 23 63 11z m-267 -1226 c0 -2 9 -48 20 -102 19 -91 20 -100 4
-109 -115 -70 -174 -127 -214 -205 -41 -81 -53 -134 -52 -235 3 -238 139 -402
350 -421 l73 -7 -24 54 c-15 36 -35 61 -58 76 -66 42 -92 67 -106 102 -21 50
-13 144 16 203 29 56 87 116 100 102 5 -5 25 -94 45 -199 20 -104 46 -238 58
-298 11 -59 18 -111 14 -115 -4 -4 -58 -7 -119 -7 -132 1 -198 18 -284 74
-276 179 -308 525 -77 830 79 103 254 281 254 257z m357 -539 c41 -22 81 -70
111 -137 20 -43 26 -76 30 -150 5 -113 -17 -186 -72 -239 l-34 -33 -21 94
c-25 111 -101 480 -101 490 0 9 48 -5 87 -25z"/>
<path d="M1555 815 c45 -41 50 -44 165 -102 45 -23 86 -45 89 -49 3 -3 -17 -4
-46 -3 -40 3 -49 1 -41 -8 6 -8 21 -10 37 -7 25 5 26 5 6 -12 -20 -16 -20 -16
5 -9 14 4 35 6 48 6 12 0 22 4 22 9 0 6 7 10 16 10 9 0 13 -6 10 -12 -2 -7
-10 -30 -17 -52 -12 -37 -12 -40 14 -62 15 -13 34 -21 42 -18 9 4 18 -2 24
-17 7 -18 10 -19 10 -6 1 21 14 22 31 2 7 -8 17 -12 23 -8 5 3 23 -9 39 -28
17 -19 23 -23 14 -9 -19 28 -20 40 -6 40 6 0 15 -11 22 -25 6 -13 15 -22 20
-19 5 3 20 -2 35 -11 14 -9 22 -12 19 -6 -14 22 13 10 54 -24 46 -38 98 -51
67 -17 -21 23 -21 32 0 32 9 0 28 -13 42 -29 15 -17 41 -33 61 -36 l35 -7 -24
25 c-37 40 -15 55 25 16 18 -18 31 -35 29 -39 -2 -4 2 -7 10 -7 8 0 12 4 9 9
-9 14 13 9 26 -7 7 -8 22 -15 34 -14 20 0 20 1 2 8 -13 5 -16 10 -9 14 6 4 18
0 26 -8 10 -10 42 -16 97 -19 44 -2 84 -6 87 -10 4 -3 27 -6 52 -6 l46 0 -33
17 c-18 8 -31 17 -29 19 7 8 79 -18 83 -31 6 -15 69 -29 85 -20 6 4 3 12 -8
21 -22 16 -14 18 22 4 17 -7 24 -7 20 0 -9 14 16 12 45 -5 14 -8 40 -14 59
-15 32 0 33 1 16 13 -13 11 -15 16 -6 22 8 4 25 -1 42 -14 15 -11 40 -21 55
-21 23 0 25 2 13 16 -13 15 -11 16 21 11 95 -18 110 -19 110 -9 0 6 -6 13 -12
15 -7 3 -1 6 14 6 15 1 29 -3 33 -9 8 -13 73 -30 91 -23 9 3 -10 21 -54 49
l-67 44 95 -6 c52 -3 109 -8 125 -10 60 -9 85 -10 85 -2 0 4 -8 8 -17 8 -28 1
-94 10 -146 20 -26 6 -69 10 -95 10 l-47 1 40 25 c22 15 32 24 23 20 -23 -7
-50 3 -42 16 3 5 16 13 28 18 18 7 17 8 -9 8 -17 -1 -41 5 -54 11 -12 7 -25
10 -29 7 -3 -3 1 -6 9 -7 8 0 1 -5 -14 -9 -16 -5 -38 -5 -50 -1 -19 7 -19 8 8
15 26 7 27 8 9 21 -28 19 -68 22 -98 6 -30 -17 -49 -5 -23 14 16 12 16 13 -8
19 -14 4 -31 4 -36 0 -6 -3 -29 -8 -51 -10 -35 -3 -39 -2 -28 11 11 13 10 14
-4 9 -11 -4 -16 -1 -16 11 0 11 -5 15 -16 11 -8 -3 -23 -2 -32 3 -9 5 -26 5
-37 1 -27 -10 -52 -1 -33 12 9 7 7 8 -9 5 -13 -3 -26 -1 -29 5 -3 5 -19 6 -35
3 -17 -4 -36 -2 -43 4 -10 8 -23 7 -49 -4 -45 -18 -74 -19 -32 0 25 11 27 15
13 20 -22 9 -52 9 -98 2 -32 -5 -33 -5 -16 8 18 14 18 15 -8 25 -15 5 -32 8
-37 5 -17 -11 -49 -14 -49 -4 0 5 6 9 13 10 25 1 -39 21 -67 21 -16 -1 -35 6
-43 13 -8 8 -33 20 -56 26 -23 6 -52 16 -64 21 -12 6 -29 8 -37 5 -8 -3 -38 1
-67 9 -28 9 -53 13 -57 10 -3 -3 -11 -1 -18 5 -20 16 -123 14 -140 -3 -8 -8
-16 -37 -17 -66 -1 -29 -5 -52 -9 -52 -15 0 -38 13 -38 22 0 5 5 6 11 3 7 -5
8 5 3 32 -8 48 -14 55 -14 17 0 -22 -3 -26 -10 -14 -8 12 -10 13 -10 1 0 -10
-8 -7 -27 10 -18 15 -16 11 6 -14 19 -20 33 -37 30 -37 -6 0 -169 70 -248 107
-31 14 -60 28 -66 30 -5 2 8 -12 30 -32z"/>
</g>
</svg>
